<mxfile host="app.diagrams.net" modified="2021-11-26T13:04:32.912Z" agent="5.0 (X11; Linux x86_64) AppleWebKit/537.36 (KHTML, like Gecko) Chrome/95.0.4638.54 Safari/537.36" etag="uj-YRRhY9TyXslx_7ZHu" version="15.8.6" type="github" pages="2">
  <diagram id="WCdp2CZNFfxnWIXeJmcA" name="Page-1">
    <mxGraphModel dx="1422" dy="800" grid="1" gridSize="10" guides="1" tooltips="1" connect="1" arrows="1" fold="1" page="1" pageScale="1" pageWidth="827" pageHeight="1169" math="0" shadow="0">
      <root>
        <mxCell id="0" />
        <mxCell id="1" parent="0" />
        <mxCell id="MLHNyPxKkd9FP9chMP-u-4" value="" style="edgeStyle=orthogonalEdgeStyle;rounded=0;orthogonalLoop=1;jettySize=auto;html=1;" parent="1" source="MLHNyPxKkd9FP9chMP-u-2" target="MLHNyPxKkd9FP9chMP-u-3" edge="1">
          <mxGeometry relative="1" as="geometry" />
        </mxCell>
        <mxCell id="MLHNyPxKkd9FP9chMP-u-2" value="SMT" style="rounded=0;whiteSpace=wrap;html=1;" parent="1" vertex="1">
          <mxGeometry x="290" y="150" width="130" height="50" as="geometry" />
        </mxCell>
        <mxCell id="MLHNyPxKkd9FP9chMP-u-3" value="MBT站" style="whiteSpace=wrap;html=1;rounded=0;" parent="1" vertex="1">
          <mxGeometry x="295" y="250" width="120" height="60" as="geometry" />
        </mxCell>
        <mxCell id="MLHNyPxKkd9FP9chMP-u-6" value="" style="endArrow=classic;dashed=1;html=1;dashPattern=1 3;strokeWidth=2;rounded=0;startArrow=none;startFill=0;endFill=1;exitX=1;exitY=0.5;exitDx=0;exitDy=0;" parent="1" source="MLHNyPxKkd9FP9chMP-u-3" edge="1">
          <mxGeometry width="50" height="50" relative="1" as="geometry">
            <mxPoint x="457" y="280" as="sourcePoint" />
            <mxPoint x="570" y="280" as="targetPoint" />
          </mxGeometry>
        </mxCell>
        <mxCell id="MLHNyPxKkd9FP9chMP-u-7" value="&lt;span style=&quot;color: rgb(51 , 51 , 51) ; background-color: rgb(255 , 255 , 255) ; font-family: , &amp;#34;blinkmacsystemfont&amp;#34; , &amp;#34;segoe ui&amp;#34; , &amp;#34;roboto&amp;#34; , &amp;#34;oxygen&amp;#34; , &amp;#34;ubuntu&amp;#34; , &amp;#34;fira sans&amp;#34; , &amp;#34;droid sans&amp;#34; , &amp;#34;helvetica neue&amp;#34; , sans-serif ; font-size: 14px&quot;&gt;a、下载工厂包&lt;/span&gt;&lt;p style=&quot;margin: 10px 0px 0px ; padding: 0px ; color: rgb(23 , 43 , 77) ; font-family: , &amp;#34;blinkmacsystemfont&amp;#34; , &amp;#34;segoe ui&amp;#34; , &amp;#34;roboto&amp;#34; , &amp;#34;oxygen&amp;#34; , &amp;#34;ubuntu&amp;#34; , &amp;#34;fira sans&amp;#34; , &amp;#34;droid sans&amp;#34; , &amp;#34;helvetica neue&amp;#34; , sans-serif ; font-size: 14px ; background-color: rgb(255 , 255 , 255)&quot;&gt;&lt;span style=&quot;color: rgb(51 , 51 , 51)&quot;&gt;&amp;nbsp; &amp;nbsp; &amp;nbsp; &amp;nbsp; &amp;nbsp; &amp;nbsp; &amp;nbsp; &amp;nbsp; &amp;nbsp; &amp;nbsp; &amp;nbsp; &amp;nbsp; b、调用ghr工具，检查Storage状态信息，拦截fail项，但不设置fatal_error，生成/data/local/tmp/ghr_bt.log文件用于FIS打点&lt;/span&gt;&lt;/p&gt;&lt;p style=&quot;margin: 10px 0px 0px ; padding: 0px ; color: rgb(23 , 43 , 77) ; font-family: , &amp;#34;blinkmacsystemfont&amp;#34; , &amp;#34;segoe ui&amp;#34; , &amp;#34;roboto&amp;#34; , &amp;#34;oxygen&amp;#34; , &amp;#34;ubuntu&amp;#34; , &amp;#34;fira sans&amp;#34; , &amp;#34;droid sans&amp;#34; , &amp;#34;helvetica neue&amp;#34; , sans-serif ; font-size: 14px ; background-color: rgb(255 , 255 , 255)&quot;&gt;&lt;span style=&quot;color: rgb(51 , 51 , 51)&quot;&gt;c、检查FW version&lt;/span&gt;&lt;/p&gt;" style="rounded=1;whiteSpace=wrap;html=1;" parent="1" vertex="1">
          <mxGeometry x="570" y="220" width="580" height="120" as="geometry" />
        </mxCell>
      </root>
    </mxGraphModel>
  </diagram>
  <diagram id="HLbr4YYNDS4mY3l_so_C" name="Page-2">
    <mxGraphModel dx="981" dy="552" grid="0" gridSize="10" guides="1" tooltips="1" connect="1" arrows="1" fold="1" page="1" pageScale="1" pageWidth="1200" pageHeight="1600" background="#ffffff" math="0" shadow="1">
      <root>
        <mxCell id="xLiqEDGShsKxDRvjuOkT-0" />
        <mxCell id="xLiqEDGShsKxDRvjuOkT-1" parent="xLiqEDGShsKxDRvjuOkT-0" />
        <mxCell id="xLiqEDGShsKxDRvjuOkT-3" value="" style="rounded=0;whiteSpace=wrap;html=1;fillColor=#dae8fc;strokeColor=#6c8ebf;" parent="xLiqEDGShsKxDRvjuOkT-1" vertex="1">
          <mxGeometry x="122" y="110" width="100" height="118" as="geometry" />
        </mxCell>
        <mxCell id="xLiqEDGShsKxDRvjuOkT-6" value="bsp_system工厂质量检查工具" style="text;html=1;resizable=0;autosize=1;align=center;verticalAlign=middle;points=[];fillColor=none;strokeColor=none;rounded=0;" parent="xLiqEDGShsKxDRvjuOkT-1" vertex="1">
          <mxGeometry y="21" width="170" height="18" as="geometry" />
        </mxCell>
        <mxCell id="xLiqEDGShsKxDRvjuOkT-7" value="crash history分区" style="text;html=1;resizable=0;autosize=1;align=center;verticalAlign=middle;points=[];fillColor=none;strokeColor=none;rounded=0;" parent="xLiqEDGShsKxDRvjuOkT-1" vertex="1">
          <mxGeometry x="117" y="90" width="110" height="20" as="geometry" />
        </mxCell>
        <mxCell id="xLiqEDGShsKxDRvjuOkT-8" value="head" style="rounded=0;whiteSpace=wrap;html=1;fillColor=#fff2cc;strokeColor=#d6b656;" parent="xLiqEDGShsKxDRvjuOkT-1" vertex="1">
          <mxGeometry x="122" y="110" width="100" height="20" as="geometry" />
        </mxCell>
        <mxCell id="xLiqEDGShsKxDRvjuOkT-9" value="" style="rounded=0;whiteSpace=wrap;html=1;" parent="xLiqEDGShsKxDRvjuOkT-1" vertex="1">
          <mxGeometry x="281" y="105" width="183" height="122" as="geometry" />
        </mxCell>
        <mxCell id="xLiqEDGShsKxDRvjuOkT-11" value="sys_parser工具" style="text;html=1;resizable=0;autosize=1;align=center;verticalAlign=middle;points=[];fillColor=none;strokeColor=none;rounded=0;" parent="xLiqEDGShsKxDRvjuOkT-1" vertex="1">
          <mxGeometry x="279" y="90" width="93" height="18" as="geometry" />
        </mxCell>
        <mxCell id="xLiqEDGShsKxDRvjuOkT-12" value="" style="rounded=0;whiteSpace=wrap;html=1;" parent="xLiqEDGShsKxDRvjuOkT-1" vertex="1">
          <mxGeometry x="572" y="105" width="101" height="52" as="geometry" />
        </mxCell>
        <mxCell id="xLiqEDGShsKxDRvjuOkT-13" value="工厂PC工具" style="text;html=1;resizable=0;autosize=1;align=center;verticalAlign=middle;points=[];fillColor=none;strokeColor=none;rounded=0;" parent="xLiqEDGShsKxDRvjuOkT-1" vertex="1">
          <mxGeometry x="585" y="105" width="75" height="18" as="geometry" />
        </mxCell>
        <mxCell id="xLiqEDGShsKxDRvjuOkT-14" value="" style="endArrow=classic;html=1;rounded=0;startArrow=none;startFill=0;endFill=1;" parent="xLiqEDGShsKxDRvjuOkT-1" edge="1">
          <mxGeometry width="50" height="50" relative="1" as="geometry">
            <mxPoint x="222" y="130" as="sourcePoint" />
            <mxPoint x="283" y="130" as="targetPoint" />
            <Array as="points" />
          </mxGeometry>
        </mxCell>
        <mxCell id="xLiqEDGShsKxDRvjuOkT-17" style="edgeStyle=orthogonalEdgeStyle;rounded=0;orthogonalLoop=1;jettySize=auto;html=1;exitX=0.5;exitY=1;exitDx=0;exitDy=0;startArrow=classic;startFill=1;" parent="xLiqEDGShsKxDRvjuOkT-1" source="xLiqEDGShsKxDRvjuOkT-9" target="xLiqEDGShsKxDRvjuOkT-9" edge="1">
          <mxGeometry relative="1" as="geometry" />
        </mxCell>
        <mxCell id="xLiqEDGShsKxDRvjuOkT-18" value="read" style="text;html=1;resizable=0;autosize=1;align=center;verticalAlign=middle;points=[];fillColor=none;strokeColor=none;rounded=0;" parent="xLiqEDGShsKxDRvjuOkT-1" vertex="1">
          <mxGeometry x="233" y="110" width="34" height="18" as="geometry" />
        </mxCell>
        <mxCell id="xLiqEDGShsKxDRvjuOkT-20" value="" style="endArrow=classic;startArrow=classic;html=1;rounded=0;" parent="xLiqEDGShsKxDRvjuOkT-1" edge="1">
          <mxGeometry width="50" height="50" relative="1" as="geometry">
            <mxPoint x="469" y="127" as="sourcePoint" />
            <mxPoint x="572" y="127" as="targetPoint" />
            <Array as="points" />
          </mxGeometry>
        </mxCell>
        <mxCell id="xLiqEDGShsKxDRvjuOkT-21" value="adb shell" style="text;html=1;align=center;verticalAlign=middle;resizable=0;points=[];autosize=1;strokeColor=none;fillColor=none;" parent="xLiqEDGShsKxDRvjuOkT-1" vertex="1">
          <mxGeometry x="488.5" y="105" width="58" height="18" as="geometry" />
        </mxCell>
        <mxCell id="xLiqEDGShsKxDRvjuOkT-22" value="" style="aspect=fixed;perimeter=ellipsePerimeter;html=1;align=center;shadow=0;dashed=0;spacingTop=3;image;image=img/lib/active_directory/database_server.svg;" parent="xLiqEDGShsKxDRvjuOkT-1" vertex="1">
          <mxGeometry x="764" y="75.51" width="91" height="110.98" as="geometry" />
        </mxCell>
        <mxCell id="xLiqEDGShsKxDRvjuOkT-24" value="" style="endArrow=classic;startArrow=classic;html=1;rounded=0;" parent="xLiqEDGShsKxDRvjuOkT-1" edge="1">
          <mxGeometry width="50" height="50" relative="1" as="geometry">
            <mxPoint x="766" y="125" as="sourcePoint" />
            <mxPoint x="673" y="125.31" as="targetPoint" />
          </mxGeometry>
        </mxCell>
        <mxCell id="xLiqEDGShsKxDRvjuOkT-25" value="数据上传服务器" style="text;html=1;align=center;verticalAlign=middle;resizable=0;points=[];autosize=1;strokeColor=none;fillColor=none;" parent="xLiqEDGShsKxDRvjuOkT-1" vertex="1">
          <mxGeometry x="672" y="102" width="94" height="18" as="geometry" />
        </mxCell>
        <mxCell id="xLiqEDGShsKxDRvjuOkT-26" value="&lt;font style=&quot;font-size: 10px&quot;&gt;Item head&lt;/font&gt;" style="rounded=0;whiteSpace=wrap;html=1;fillColor=#f5f5f5;strokeColor=#666666;fontColor=#333333;" parent="xLiqEDGShsKxDRvjuOkT-1" vertex="1">
          <mxGeometry x="122" y="130" width="100" height="12" as="geometry" />
        </mxCell>
        <mxCell id="xLiqEDGShsKxDRvjuOkT-27" value="&lt;font style=&quot;font-size: 10px&quot;&gt;Item head&lt;/font&gt;" style="rounded=0;whiteSpace=wrap;html=1;fillColor=#f5f5f5;strokeColor=#666666;fontColor=#333333;" parent="xLiqEDGShsKxDRvjuOkT-1" vertex="1">
          <mxGeometry x="122" y="163" width="99" height="12" as="geometry" />
        </mxCell>
        <mxCell id="xLiqEDGShsKxDRvjuOkT-29" value="crash string" style="rounded=0;whiteSpace=wrap;html=1;fontSize=10;" parent="xLiqEDGShsKxDRvjuOkT-1" vertex="1">
          <mxGeometry x="122" y="142" width="99" height="22" as="geometry" />
        </mxCell>
        <mxCell id="xLiqEDGShsKxDRvjuOkT-31" value="crash string" style="rounded=0;whiteSpace=wrap;html=1;fontSize=10;" parent="xLiqEDGShsKxDRvjuOkT-1" vertex="1">
          <mxGeometry x="122" y="175" width="99" height="22" as="geometry" />
        </mxCell>
        <mxCell id="xLiqEDGShsKxDRvjuOkT-32" value="......" style="text;html=1;resizable=0;autosize=1;align=center;verticalAlign=middle;points=[];fillColor=none;strokeColor=none;rounded=0;fontSize=10;" parent="xLiqEDGShsKxDRvjuOkT-1" vertex="1">
          <mxGeometry x="153" y="203" width="27" height="16" as="geometry" />
        </mxCell>
        <mxCell id="xLiqEDGShsKxDRvjuOkT-33" value="" style="endArrow=none;dashed=1;html=1;rounded=0;fontSize=10;" parent="xLiqEDGShsKxDRvjuOkT-1" edge="1">
          <mxGeometry width="50" height="50" relative="1" as="geometry">
            <mxPoint x="468" y="259" as="sourcePoint" />
            <mxPoint x="468" y="70" as="targetPoint" />
          </mxGeometry>
        </mxCell>
        <mxCell id="xLiqEDGShsKxDRvjuOkT-34" value="" style="endArrow=none;dashed=1;html=1;rounded=0;fontSize=10;" parent="xLiqEDGShsKxDRvjuOkT-1" edge="1">
          <mxGeometry width="50" height="50" relative="1" as="geometry">
            <mxPoint x="82" y="67" as="sourcePoint" />
            <mxPoint x="469" y="67" as="targetPoint" />
          </mxGeometry>
        </mxCell>
        <mxCell id="xLiqEDGShsKxDRvjuOkT-35" value="" style="endArrow=none;dashed=1;html=1;rounded=0;fontSize=10;" parent="xLiqEDGShsKxDRvjuOkT-1" edge="1">
          <mxGeometry width="50" height="50" relative="1" as="geometry">
            <mxPoint x="80" y="259" as="sourcePoint" />
            <mxPoint x="466" y="259" as="targetPoint" />
          </mxGeometry>
        </mxCell>
        <mxCell id="xLiqEDGShsKxDRvjuOkT-36" value="" style="endArrow=none;dashed=1;html=1;dashPattern=1 3;strokeWidth=2;rounded=0;fontSize=10;" parent="xLiqEDGShsKxDRvjuOkT-1" edge="1">
          <mxGeometry width="50" height="50" relative="1" as="geometry">
            <mxPoint x="78" y="259" as="sourcePoint" />
            <mxPoint x="78" y="69" as="targetPoint" />
          </mxGeometry>
        </mxCell>
        <mxCell id="xLiqEDGShsKxDRvjuOkT-39" value="手机端" style="text;html=1;resizable=0;autosize=1;align=center;verticalAlign=middle;points=[];fillColor=none;strokeColor=none;rounded=0;fontSize=10;" parent="xLiqEDGShsKxDRvjuOkT-1" vertex="1">
          <mxGeometry x="85" y="74" width="40" height="16" as="geometry" />
        </mxCell>
        <mxCell id="xLiqEDGShsKxDRvjuOkT-43" value="1.sys_parser --crashinfo" style="rounded=0;whiteSpace=wrap;html=1;fontSize=10;" parent="xLiqEDGShsKxDRvjuOkT-1" vertex="1">
          <mxGeometry x="281.5" y="105" width="183" height="27" as="geometry" />
        </mxCell>
        <mxCell id="xLiqEDGShsKxDRvjuOkT-45" value="2.sys_parser --crashcheck" style="rounded=0;whiteSpace=wrap;html=1;fontSize=10;" parent="xLiqEDGShsKxDRvjuOkT-1" vertex="1">
          <mxGeometry x="281" y="132" width="183" height="41" as="geometry" />
        </mxCell>
        <mxCell id="xLiqEDGShsKxDRvjuOkT-46" value="3.sys_parser --fatalcheck" style="rounded=0;whiteSpace=wrap;html=1;fontSize=10;" parent="xLiqEDGShsKxDRvjuOkT-1" vertex="1">
          <mxGeometry x="281" y="173" width="183" height="30" as="geometry" />
        </mxCell>
        <mxCell id="xLiqEDGShsKxDRvjuOkT-47" value="读取手机端 .xml文件并解析处理" style="rounded=0;whiteSpace=wrap;html=1;fontSize=10;" parent="xLiqEDGShsKxDRvjuOkT-1" vertex="1">
          <mxGeometry x="572" y="122" width="101" height="35" as="geometry" />
        </mxCell>
        <mxCell id="xLiqEDGShsKxDRvjuOkT-57" value="" style="shape=table;startSize=0;container=1;collapsible=0;childLayout=tableLayout;fontSize=10;" parent="xLiqEDGShsKxDRvjuOkT-1" vertex="1">
          <mxGeometry x="233" y="287" width="569" height="236" as="geometry" />
        </mxCell>
        <mxCell id="xLiqEDGShsKxDRvjuOkT-58" value="" style="shape=partialRectangle;collapsible=0;dropTarget=0;pointerEvents=0;fillColor=none;top=0;left=0;bottom=0;right=0;points=[[0,0.5],[1,0.5]];portConstraint=eastwest;fontSize=10;" parent="xLiqEDGShsKxDRvjuOkT-57" vertex="1">
          <mxGeometry width="569" height="15" as="geometry" />
        </mxCell>
        <mxCell id="xLiqEDGShsKxDRvjuOkT-59" value="crash type" style="shape=partialRectangle;html=1;whiteSpace=wrap;connectable=0;overflow=hidden;fillColor=none;top=0;left=0;bottom=0;right=0;pointerEvents=1;fontSize=10;" parent="xLiqEDGShsKxDRvjuOkT-58" vertex="1">
          <mxGeometry width="133" height="15" as="geometry">
            <mxRectangle width="133" height="15" as="alternateBounds" />
          </mxGeometry>
        </mxCell>
        <mxCell id="xLiqEDGShsKxDRvjuOkT-60" value="fatal_error 工具" style="shape=partialRectangle;html=1;whiteSpace=wrap;connectable=0;overflow=hidden;fillColor=none;top=0;left=0;bottom=0;right=0;pointerEvents=1;fontSize=10;" parent="xLiqEDGShsKxDRvjuOkT-58" vertex="1">
          <mxGeometry x="133" width="436" height="15" as="geometry">
            <mxRectangle width="436" height="15" as="alternateBounds" />
          </mxGeometry>
        </mxCell>
        <mxCell id="xLiqEDGShsKxDRvjuOkT-61" value="" style="shape=partialRectangle;collapsible=0;dropTarget=0;pointerEvents=0;fillColor=none;top=0;left=0;bottom=0;right=0;points=[[0,0.5],[1,0.5]];portConstraint=eastwest;fontSize=10;" parent="xLiqEDGShsKxDRvjuOkT-57" vertex="1">
          <mxGeometry y="15" width="569" height="14" as="geometry" />
        </mxCell>
        <mxCell id="xLiqEDGShsKxDRvjuOkT-62" value="cpu_llcc_data_sig" style="shape=partialRectangle;html=1;whiteSpace=wrap;connectable=0;overflow=hidden;fillColor=none;top=0;left=0;bottom=0;right=0;pointerEvents=1;fontSize=10;" parent="xLiqEDGShsKxDRvjuOkT-61" vertex="1">
          <mxGeometry width="133" height="14" as="geometry">
            <mxRectangle width="133" height="14" as="alternateBounds" />
          </mxGeometry>
        </mxCell>
        <mxCell id="xLiqEDGShsKxDRvjuOkT-63" value="fatal_error --set &quot;EDAC LLCC Data RAM correctable Error:Single bit&quot;" style="shape=partialRectangle;html=1;whiteSpace=wrap;connectable=0;overflow=hidden;fillColor=none;top=0;left=0;bottom=0;right=0;pointerEvents=1;fontSize=10;" parent="xLiqEDGShsKxDRvjuOkT-61" vertex="1">
          <mxGeometry x="133" width="436" height="14" as="geometry">
            <mxRectangle width="436" height="14" as="alternateBounds" />
          </mxGeometry>
        </mxCell>
        <mxCell id="xLiqEDGShsKxDRvjuOkT-64" value="" style="shape=partialRectangle;collapsible=0;dropTarget=0;pointerEvents=0;fillColor=none;top=0;left=0;bottom=0;right=0;points=[[0,0.5],[1,0.5]];portConstraint=eastwest;fontSize=10;" parent="xLiqEDGShsKxDRvjuOkT-57" vertex="1">
          <mxGeometry y="29" width="569" height="15" as="geometry" />
        </mxCell>
        <mxCell id="xLiqEDGShsKxDRvjuOkT-65" value="cpu_llcc_data_mul" style="shape=partialRectangle;html=1;whiteSpace=wrap;connectable=0;overflow=hidden;fillColor=none;top=0;left=0;bottom=0;right=0;pointerEvents=1;fontSize=10;" parent="xLiqEDGShsKxDRvjuOkT-64" vertex="1">
          <mxGeometry width="133" height="15" as="geometry">
            <mxRectangle width="133" height="15" as="alternateBounds" />
          </mxGeometry>
        </mxCell>
        <mxCell id="xLiqEDGShsKxDRvjuOkT-66" value="fatal_error --set &quot;EDAC LLCC Data RAM correctable Error:Multi bit&quot;" style="shape=partialRectangle;html=1;whiteSpace=wrap;connectable=0;overflow=hidden;fillColor=none;top=0;left=0;bottom=0;right=0;pointerEvents=1;fontSize=10;" parent="xLiqEDGShsKxDRvjuOkT-64" vertex="1">
          <mxGeometry x="133" width="436" height="15" as="geometry">
            <mxRectangle width="436" height="15" as="alternateBounds" />
          </mxGeometry>
        </mxCell>
        <mxCell id="xLiqEDGShsKxDRvjuOkT-67" value="" style="shape=partialRectangle;collapsible=0;dropTarget=0;pointerEvents=0;fillColor=none;top=0;left=0;bottom=0;right=0;points=[[0,0.5],[1,0.5]];portConstraint=eastwest;fontSize=10;" parent="xLiqEDGShsKxDRvjuOkT-57" vertex="1">
          <mxGeometry y="44" width="569" height="13" as="geometry" />
        </mxCell>
        <mxCell id="xLiqEDGShsKxDRvjuOkT-68" value="cpu_llcc_tag_sig" style="shape=partialRectangle;html=1;whiteSpace=wrap;connectable=0;overflow=hidden;fillColor=none;top=0;left=0;bottom=0;right=0;pointerEvents=1;fontSize=10;" parent="xLiqEDGShsKxDRvjuOkT-67" vertex="1">
          <mxGeometry width="133" height="13" as="geometry">
            <mxRectangle width="133" height="13" as="alternateBounds" />
          </mxGeometry>
        </mxCell>
        <mxCell id="xLiqEDGShsKxDRvjuOkT-69" value="fatal_error --set &quot;LLCC Tag RAM correctable Error:Single bit&quot;" style="shape=partialRectangle;html=1;whiteSpace=wrap;connectable=0;overflow=hidden;fillColor=none;top=0;left=0;bottom=0;right=0;pointerEvents=1;fontSize=10;" parent="xLiqEDGShsKxDRvjuOkT-67" vertex="1">
          <mxGeometry x="133" width="436" height="13" as="geometry">
            <mxRectangle width="436" height="13" as="alternateBounds" />
          </mxGeometry>
        </mxCell>
        <mxCell id="xLiqEDGShsKxDRvjuOkT-70" value="" style="shape=partialRectangle;collapsible=0;dropTarget=0;pointerEvents=0;fillColor=none;top=0;left=0;bottom=0;right=0;points=[[0,0.5],[1,0.5]];portConstraint=eastwest;fontSize=10;" parent="xLiqEDGShsKxDRvjuOkT-57" vertex="1">
          <mxGeometry y="57" width="569" height="15" as="geometry" />
        </mxCell>
        <mxCell id="xLiqEDGShsKxDRvjuOkT-71" value="cpu_llcc_tag_mul" style="shape=partialRectangle;html=1;whiteSpace=wrap;connectable=0;overflow=hidden;fillColor=none;top=0;left=0;bottom=0;right=0;pointerEvents=1;fontSize=10;" parent="xLiqEDGShsKxDRvjuOkT-70" vertex="1">
          <mxGeometry width="133" height="15" as="geometry">
            <mxRectangle width="133" height="15" as="alternateBounds" />
          </mxGeometry>
        </mxCell>
        <mxCell id="xLiqEDGShsKxDRvjuOkT-72" value="fatal_error --set &quot;LLCC Tag RAM uncorrectable Error:Multi bit&quot;" style="shape=partialRectangle;html=1;whiteSpace=wrap;connectable=0;overflow=hidden;fillColor=none;top=0;left=0;bottom=0;right=0;pointerEvents=1;fontSize=10;" parent="xLiqEDGShsKxDRvjuOkT-70" vertex="1">
          <mxGeometry x="133" width="436" height="15" as="geometry">
            <mxRectangle width="436" height="15" as="alternateBounds" />
          </mxGeometry>
        </mxCell>
        <mxCell id="xLiqEDGShsKxDRvjuOkT-73" value="" style="shape=partialRectangle;collapsible=0;dropTarget=0;pointerEvents=0;fillColor=none;top=0;left=0;bottom=0;right=0;points=[[0,0.5],[1,0.5]];portConstraint=eastwest;fontSize=10;" parent="xLiqEDGShsKxDRvjuOkT-57" vertex="1">
          <mxGeometry y="72" width="569" height="15" as="geometry" />
        </mxCell>
        <mxCell id="xLiqEDGShsKxDRvjuOkT-74" value="cpu_l1_sig" style="shape=partialRectangle;html=1;whiteSpace=wrap;connectable=0;overflow=hidden;fillColor=none;top=0;left=0;bottom=0;right=0;pointerEvents=1;fontSize=10;" parent="xLiqEDGShsKxDRvjuOkT-73" vertex="1">
          <mxGeometry width="133" height="15" as="geometry">
            <mxRectangle width="133" height="15" as="alternateBounds" />
          </mxGeometry>
        </mxCell>
        <mxCell id="xLiqEDGShsKxDRvjuOkT-75" value="fatal_error --set &quot;EDAC Kryo L1 Correctable Error:Single bit&quot;" style="shape=partialRectangle;html=1;whiteSpace=wrap;connectable=0;overflow=hidden;fillColor=none;top=0;left=0;bottom=0;right=0;pointerEvents=1;fontSize=10;" parent="xLiqEDGShsKxDRvjuOkT-73" vertex="1">
          <mxGeometry x="133" width="436" height="15" as="geometry">
            <mxRectangle width="436" height="15" as="alternateBounds" />
          </mxGeometry>
        </mxCell>
        <mxCell id="xLiqEDGShsKxDRvjuOkT-76" value="" style="shape=partialRectangle;collapsible=0;dropTarget=0;pointerEvents=0;fillColor=none;top=0;left=0;bottom=0;right=0;points=[[0,0.5],[1,0.5]];portConstraint=eastwest;fontSize=10;" parent="xLiqEDGShsKxDRvjuOkT-57" vertex="1">
          <mxGeometry y="87" width="569" height="14" as="geometry" />
        </mxCell>
        <mxCell id="xLiqEDGShsKxDRvjuOkT-77" value="cpu_l1_mul" style="shape=partialRectangle;html=1;whiteSpace=wrap;connectable=0;overflow=hidden;fillColor=none;top=0;left=0;bottom=0;right=0;pointerEvents=1;fontSize=10;" parent="xLiqEDGShsKxDRvjuOkT-76" vertex="1">
          <mxGeometry width="133" height="14" as="geometry">
            <mxRectangle width="133" height="14" as="alternateBounds" />
          </mxGeometry>
        </mxCell>
        <mxCell id="xLiqEDGShsKxDRvjuOkT-78" value="fatal_error --set &quot;EDAC Kryo L1 Uncorrectable Error:Multi bit&quot;" style="shape=partialRectangle;html=1;whiteSpace=wrap;connectable=0;overflow=hidden;fillColor=none;top=0;left=0;bottom=0;right=0;pointerEvents=1;fontSize=10;" parent="xLiqEDGShsKxDRvjuOkT-76" vertex="1">
          <mxGeometry x="133" width="436" height="14" as="geometry">
            <mxRectangle width="436" height="14" as="alternateBounds" />
          </mxGeometry>
        </mxCell>
        <mxCell id="xLiqEDGShsKxDRvjuOkT-79" value="" style="shape=partialRectangle;collapsible=0;dropTarget=0;pointerEvents=0;fillColor=none;top=0;left=0;bottom=0;right=0;points=[[0,0.5],[1,0.5]];portConstraint=eastwest;fontSize=10;" parent="xLiqEDGShsKxDRvjuOkT-57" vertex="1">
          <mxGeometry y="101" width="569" height="20" as="geometry" />
        </mxCell>
        <mxCell id="xLiqEDGShsKxDRvjuOkT-80" value="cpu_l2_sig" style="shape=partialRectangle;html=1;whiteSpace=wrap;connectable=0;overflow=hidden;fillColor=none;top=0;left=0;bottom=0;right=0;pointerEvents=1;fontSize=10;" parent="xLiqEDGShsKxDRvjuOkT-79" vertex="1">
          <mxGeometry width="133" height="20" as="geometry">
            <mxRectangle width="133" height="20" as="alternateBounds" />
          </mxGeometry>
        </mxCell>
        <mxCell id="xLiqEDGShsKxDRvjuOkT-81" value="fatal_error --set &quot;EDAC Kryo L2 Correctable Error:Single bit&quot;" style="shape=partialRectangle;html=1;whiteSpace=wrap;connectable=0;overflow=hidden;fillColor=none;top=0;left=0;bottom=0;right=0;pointerEvents=1;fontSize=10;" parent="xLiqEDGShsKxDRvjuOkT-79" vertex="1">
          <mxGeometry x="133" width="436" height="20" as="geometry">
            <mxRectangle width="436" height="20" as="alternateBounds" />
          </mxGeometry>
        </mxCell>
        <mxCell id="xLiqEDGShsKxDRvjuOkT-82" value="" style="shape=partialRectangle;collapsible=0;dropTarget=0;pointerEvents=0;fillColor=none;top=0;left=0;bottom=0;right=0;points=[[0,0.5],[1,0.5]];portConstraint=eastwest;fontSize=10;" parent="xLiqEDGShsKxDRvjuOkT-57" vertex="1">
          <mxGeometry y="121" width="569" height="20" as="geometry" />
        </mxCell>
        <mxCell id="xLiqEDGShsKxDRvjuOkT-83" value="cpu_l2_mul" style="shape=partialRectangle;html=1;whiteSpace=wrap;connectable=0;overflow=hidden;fillColor=none;top=0;left=0;bottom=0;right=0;pointerEvents=1;fontSize=10;" parent="xLiqEDGShsKxDRvjuOkT-82" vertex="1">
          <mxGeometry width="133" height="20" as="geometry">
            <mxRectangle width="133" height="20" as="alternateBounds" />
          </mxGeometry>
        </mxCell>
        <mxCell id="xLiqEDGShsKxDRvjuOkT-84" value="fatal_error --set &quot;EDAC Kryo L2 Uncorrectable Error:Multi bit&quot;" style="shape=partialRectangle;html=1;whiteSpace=wrap;connectable=0;overflow=hidden;fillColor=none;top=0;left=0;bottom=0;right=0;pointerEvents=1;fontSize=10;" parent="xLiqEDGShsKxDRvjuOkT-82" vertex="1">
          <mxGeometry x="133" width="436" height="20" as="geometry">
            <mxRectangle width="436" height="20" as="alternateBounds" />
          </mxGeometry>
        </mxCell>
        <mxCell id="xLiqEDGShsKxDRvjuOkT-85" value="" style="shape=partialRectangle;collapsible=0;dropTarget=0;pointerEvents=0;fillColor=none;top=0;left=0;bottom=0;right=0;points=[[0,0.5],[1,0.5]];portConstraint=eastwest;fontSize=10;" parent="xLiqEDGShsKxDRvjuOkT-57" vertex="1">
          <mxGeometry y="141" width="569" height="15" as="geometry" />
        </mxCell>
        <mxCell id="xLiqEDGShsKxDRvjuOkT-86" value="cpu_l3_sig" style="shape=partialRectangle;html=1;whiteSpace=wrap;connectable=0;overflow=hidden;fillColor=none;top=0;left=0;bottom=0;right=0;pointerEvents=1;fontSize=10;" parent="xLiqEDGShsKxDRvjuOkT-85" vertex="1">
          <mxGeometry width="133" height="15" as="geometry">
            <mxRectangle width="133" height="15" as="alternateBounds" />
          </mxGeometry>
        </mxCell>
        <mxCell id="xLiqEDGShsKxDRvjuOkT-87" value="fatal_error --set &quot;EDAC L3 Correctable Error:Single bit&quot;" style="shape=partialRectangle;html=1;whiteSpace=wrap;connectable=0;overflow=hidden;fillColor=none;top=0;left=0;bottom=0;right=0;pointerEvents=1;fontSize=10;" parent="xLiqEDGShsKxDRvjuOkT-85" vertex="1">
          <mxGeometry x="133" width="436" height="15" as="geometry">
            <mxRectangle width="436" height="15" as="alternateBounds" />
          </mxGeometry>
        </mxCell>
        <mxCell id="xLiqEDGShsKxDRvjuOkT-88" value="" style="shape=partialRectangle;collapsible=0;dropTarget=0;pointerEvents=0;fillColor=none;top=0;left=0;bottom=0;right=0;points=[[0,0.5],[1,0.5]];portConstraint=eastwest;fontSize=10;" parent="xLiqEDGShsKxDRvjuOkT-57" vertex="1">
          <mxGeometry y="156" width="569" height="20" as="geometry" />
        </mxCell>
        <mxCell id="xLiqEDGShsKxDRvjuOkT-89" value="cpu_l3_mul" style="shape=partialRectangle;html=1;whiteSpace=wrap;connectable=0;overflow=hidden;fillColor=none;top=0;left=0;bottom=0;right=0;pointerEvents=1;fontSize=10;" parent="xLiqEDGShsKxDRvjuOkT-88" vertex="1">
          <mxGeometry width="133" height="20" as="geometry">
            <mxRectangle width="133" height="20" as="alternateBounds" />
          </mxGeometry>
        </mxCell>
        <mxCell id="xLiqEDGShsKxDRvjuOkT-90" value="fatal_error --set &quot;EDAC L3 Uncorrectable Error:Multi bit&quot;" style="shape=partialRectangle;html=1;whiteSpace=wrap;connectable=0;overflow=hidden;fillColor=none;top=0;left=0;bottom=0;right=0;pointerEvents=1;fontSize=10;" parent="xLiqEDGShsKxDRvjuOkT-88" vertex="1">
          <mxGeometry x="133" width="436" height="20" as="geometry">
            <mxRectangle width="436" height="20" as="alternateBounds" />
          </mxGeometry>
        </mxCell>
        <mxCell id="xLiqEDGShsKxDRvjuOkT-91" value="" style="shape=partialRectangle;collapsible=0;dropTarget=0;pointerEvents=0;fillColor=none;top=0;left=0;bottom=0;right=0;points=[[0,0.5],[1,0.5]];portConstraint=eastwest;fontSize=10;" parent="xLiqEDGShsKxDRvjuOkT-57" vertex="1">
          <mxGeometry y="176" width="569" height="15" as="geometry" />
        </mxCell>
        <mxCell id="xLiqEDGShsKxDRvjuOkT-92" value="cpu_match_err" style="shape=partialRectangle;html=1;whiteSpace=wrap;connectable=0;overflow=hidden;fillColor=none;top=0;left=0;bottom=0;right=0;pointerEvents=1;fontSize=10;" parent="xLiqEDGShsKxDRvjuOkT-91" vertex="1">
          <mxGeometry width="133" height="15" as="geometry">
            <mxRectangle width="133" height="15" as="alternateBounds" />
          </mxGeometry>
        </mxCell>
        <mxCell id="xLiqEDGShsKxDRvjuOkT-93" value="fatal_error --set &quot;EDAC Kryo Match Cpu Error&quot;" style="shape=partialRectangle;html=1;whiteSpace=wrap;connectable=0;overflow=hidden;fillColor=none;top=0;left=0;bottom=0;right=0;pointerEvents=1;fontSize=10;" parent="xLiqEDGShsKxDRvjuOkT-91" vertex="1">
          <mxGeometry x="133" width="436" height="15" as="geometry">
            <mxRectangle width="436" height="15" as="alternateBounds" />
          </mxGeometry>
        </mxCell>
        <mxCell id="xLiqEDGShsKxDRvjuOkT-110" style="shape=partialRectangle;collapsible=0;dropTarget=0;pointerEvents=0;fillColor=none;top=0;left=0;bottom=0;right=0;points=[[0,0.5],[1,0.5]];portConstraint=eastwest;fontSize=10;" parent="xLiqEDGShsKxDRvjuOkT-57" vertex="1">
          <mxGeometry y="191" width="569" height="15" as="geometry" />
        </mxCell>
        <mxCell id="xLiqEDGShsKxDRvjuOkT-111" value="cpu_undef_instr" style="shape=partialRectangle;html=1;whiteSpace=wrap;connectable=0;overflow=hidden;fillColor=none;top=0;left=0;bottom=0;right=0;pointerEvents=1;fontSize=10;" parent="xLiqEDGShsKxDRvjuOkT-110" vertex="1">
          <mxGeometry width="133" height="15" as="geometry">
            <mxRectangle width="133" height="15" as="alternateBounds" />
          </mxGeometry>
        </mxCell>
        <mxCell id="xLiqEDGShsKxDRvjuOkT-112" value="fatal_error --set &quot;Instruction Exception&quot;" style="shape=partialRectangle;html=1;whiteSpace=wrap;connectable=0;overflow=hidden;fillColor=none;top=0;left=0;bottom=0;right=0;pointerEvents=1;fontSize=10;" parent="xLiqEDGShsKxDRvjuOkT-110" vertex="1">
          <mxGeometry x="133" width="436" height="15" as="geometry">
            <mxRectangle width="436" height="15" as="alternateBounds" />
          </mxGeometry>
        </mxCell>
        <mxCell id="xLiqEDGShsKxDRvjuOkT-113" style="shape=partialRectangle;collapsible=0;dropTarget=0;pointerEvents=0;fillColor=none;top=0;left=0;bottom=0;right=0;points=[[0,0.5],[1,0.5]];portConstraint=eastwest;fontSize=10;" parent="xLiqEDGShsKxDRvjuOkT-57" vertex="1">
          <mxGeometry y="206" width="569" height="15" as="geometry" />
        </mxCell>
        <mxCell id="xLiqEDGShsKxDRvjuOkT-114" value="ocp" style="shape=partialRectangle;html=1;whiteSpace=wrap;connectable=0;overflow=hidden;fillColor=none;top=0;left=0;bottom=0;right=0;pointerEvents=1;fontSize=10;" parent="xLiqEDGShsKxDRvjuOkT-113" vertex="1">
          <mxGeometry width="133" height="15" as="geometry">
            <mxRectangle width="133" height="15" as="alternateBounds" />
          </mxGeometry>
        </mxCell>
        <mxCell id="xLiqEDGShsKxDRvjuOkT-115" value="fatal_error --set &quot;OCP Occured: PMIC:${PMIC[$pmic_index]}$circuit&quot;" style="shape=partialRectangle;html=1;whiteSpace=wrap;connectable=0;overflow=hidden;fillColor=none;top=0;left=0;bottom=0;right=0;pointerEvents=1;fontSize=10;" parent="xLiqEDGShsKxDRvjuOkT-113" vertex="1">
          <mxGeometry x="133" width="436" height="15" as="geometry">
            <mxRectangle width="436" height="15" as="alternateBounds" />
          </mxGeometry>
        </mxCell>
        <mxCell id="xLiqEDGShsKxDRvjuOkT-119" style="shape=partialRectangle;collapsible=0;dropTarget=0;pointerEvents=0;fillColor=none;top=0;left=0;bottom=0;right=0;points=[[0,0.5],[1,0.5]];portConstraint=eastwest;fontSize=10;" parent="xLiqEDGShsKxDRvjuOkT-57" vertex="1">
          <mxGeometry y="221" width="569" height="15" as="geometry" />
        </mxCell>
        <mxCell id="xLiqEDGShsKxDRvjuOkT-120" value="......" style="shape=partialRectangle;html=1;whiteSpace=wrap;connectable=0;overflow=hidden;fillColor=none;top=0;left=0;bottom=0;right=0;pointerEvents=1;fontSize=10;" parent="xLiqEDGShsKxDRvjuOkT-119" vertex="1">
          <mxGeometry width="133" height="15" as="geometry">
            <mxRectangle width="133" height="15" as="alternateBounds" />
          </mxGeometry>
        </mxCell>
        <mxCell id="xLiqEDGShsKxDRvjuOkT-121" value="......." style="shape=partialRectangle;html=1;whiteSpace=wrap;connectable=0;overflow=hidden;fillColor=none;top=0;left=0;bottom=0;right=0;pointerEvents=1;fontSize=10;" parent="xLiqEDGShsKxDRvjuOkT-119" vertex="1">
          <mxGeometry x="133" width="436" height="15" as="geometry">
            <mxRectangle width="436" height="15" as="alternateBounds" />
          </mxGeometry>
        </mxCell>
        <mxCell id="xLiqEDGShsKxDRvjuOkT-109" value="" style="endArrow=classic;html=1;rounded=0;fontSize=10;exitX=0;exitY=0.5;exitDx=0;exitDy=0;entryX=0.011;entryY=-0.092;entryDx=0;entryDy=0;entryPerimeter=0;" parent="xLiqEDGShsKxDRvjuOkT-1" source="xLiqEDGShsKxDRvjuOkT-122" target="xLiqEDGShsKxDRvjuOkT-58" edge="1">
          <mxGeometry width="50" height="50" relative="1" as="geometry">
            <mxPoint x="335" y="295" as="sourcePoint" />
            <mxPoint x="385" y="245" as="targetPoint" />
            <Array as="points">
              <mxPoint x="239" y="218" />
            </Array>
          </mxGeometry>
        </mxCell>
        <mxCell id="xLiqEDGShsKxDRvjuOkT-122" value="4.sys_parser --fatalset" style="rounded=0;whiteSpace=wrap;html=1;fontSize=10;" parent="xLiqEDGShsKxDRvjuOkT-1" vertex="1">
          <mxGeometry x="280.5" y="203" width="183.5" height="30" as="geometry" />
        </mxCell>
      </root>
    </mxGraphModel>
  </diagram>
</mxfile>
